<svg height="512" viewBox="0 0 60 60" width="512" xmlns="http://www.w3.org/2000/svg"><g id="Page-1" fill="none" fill-rule="evenodd"><g id="030---School" fill="rgb(0,0,0)" fill-rule="nonzero"><path id="Shape" d="m30 33c3.8659932 0 7-3.1340068 7-7s-3.1340068-7-7-7-7 3.1340068-7 7c.0044086 3.8641657 3.1358343 6.9955914 7 7zm0-12c2.7614237 0 5 2.2385763 5 5s-2.2385763 5-5 5-5-2.2385763-5-5c.0033061-2.7600532 2.2399468-4.9966939 5-5z"/><path id="Shape" d="m30 28c.5522847 0 1-.4477153 1-1v-.586l.707-.707c.3789722-.3923789.3735524-1.0160848-.0121814-1.4018186s-1.0094397-.3911536-1.4018186-.0121814l-1 1c-.1875494.1874927-.2929434.4418052-.293.707v1c0 .5522847.4477153 1 1 1z"/><path id="Shape" d="m58 23h-17v-3.941l1.526.821c.1454345.0791225.3084361.1203887.474.12.457945.0000121.8573801-.3110456.9695591-.7550383s-.0915675-.9074499-.4945591-1.1249617l-12.475-6.72v-2.4h6c1.1045695 0 2-.8954305 2-2v-4c0-1.1045695-.8954305-2-2-2h-6c0-.55228475-.4477153-1-1-1s-1 .44771525-1 1v10.4l-12.474 6.72c-.3260291.1630256-.5375244.4905395-.5519759.8547695-.0144514.36423.1704306.7074708.4825185.8958148.3120879.1883441.7019373.1919518 1.0174574.0094157l1.526-.821v3.941h-17c-1.1045695 0-2 .8954305-2 2v2c0 1.1045695.8954305 2 2 2v28c0 1.6568542 1.34314575 3 3 3h50c1.6568542 0 3-1.3431458 3-3v-28c1.1045695 0 2-.8954305 2-2v-2c0-1.1045695-.8954305-2-2-2zm-39 31v-1c0-.5522847.4477153-1 1-1h20c.5522847 0 1 .4477153 1 1v1zm6-6.184c.320257.1184378.6585603.1806856 1 .184 1.6568542 0 3-1.3431458 3-3s-1.3431458-3-3-3c-.3414397.0033144-.679743.0655622-1 .184v-.184c0-2.7614237 2.2385763-5 5-5s5 2.2385763 5 5v8h-10zm0-2.816c0-.5522847.4477153-1 1-1s1 .4477153 1 1-.4477153 1-1 1-1-.4477153-1-1zm12-42v4h-6v-4zm-7 10.136 9 4.846v32.018h-2v-8c0-3.8659932-3.1340068-7-7-7s-7 3.1340068-7 7v8h-2v-32.018zm-28 11.864h17v2h-17zm2 32v-28h15v21.184c-1.1943509.4222546-1.9947486 1.5492146-2 2.816v1.184c-1.1943509.4222546-1.9947486 1.5492146-2 2.816v1h-10c-.55228475 0-1-.4477153-1-1zm39 1h-26v-1c0-.5522847.4477153-1 1-1h24c.5522847 0 1 .4477153 1 1zm13-1c0 .5522847-.4477153 1-1 1h-10v-1c-.0052514-1.2667854-.8056491-2.3937454-2-2.816v-1.184c-.0052514-1.2667854-.8056491-2.3937454-2-2.816v-21.184h15zm2-30h-17v-2h17z"/><path id="Shape" d="m8 39h7c1.1045695 0 2-.8954305 2-2v-3c0-1.1045695-.8954305-2-2-2h-7c-1.1045695 0-2 .8954305-2 2v3c0 1.1045695.8954305 2 2 2zm0-5h7v3h-7z"/><path id="Shape" d="m15 48c1.1045695 0 2-.8954305 2-2v-3c0-1.1045695-.8954305-2-2-2h-7c-1.1045695 0-2 .8954305-2 2v3c0 1.1045695.8954305 2 2 2zm-7-5h7v3h-7z"/><path id="Shape" d="m45 39h7c1.1045695 0 2-.8954305 2-2v-3c0-1.1045695-.8954305-2-2-2h-7c-1.1045695 0-2 .8954305-2 2v3c0 1.1045695.8954305 2 2 2zm0-5h7v3h-7z"/><path id="Shape" d="m45 48h7c1.1045695 0 2-.8954305 2-2v-3c0-1.1045695-.8954305-2-2-2h-7c-1.1045695 0-2 .8954305-2 2v3c0 1.1045695.8954305 2 2 2zm0-5h7v3h-7z"/></g></g></svg>