<svg id="Capa_1" enable-background="new 0 0 512 512" height="512" viewBox="0 0 512 512" width="512" xmlns="http://www.w3.org/2000/svg"><g><path d="m15 240h210c8.284 0 15-6.716 15-15 0-42.739-22.463-80.324-56.198-101.587-16.312 16.411-38.89 26.587-63.802 26.587s-47.49-10.176-63.802-26.587c-33.735 21.263-56.198 58.848-56.198 101.587 0 8.284 6.716 15 15 15z"/><circle cx="120" cy="60" r="60"/><path d="m455.802 395.413c-16.312 16.411-38.89 26.587-63.802 26.587s-47.49-10.176-63.802-26.587c-33.735 21.263-56.198 58.848-56.198 101.587 0 8.284 6.716 15 15 15h210c8.284 0 15-6.716 15-15 0-42.739-22.463-80.324-56.198-101.587z"/><circle cx="392" cy="332" r="60"/><path d="m279.833 77.575c-5.202 13.619-7.833 27.849-7.833 42.425 0 66.168 53.832 120 120 120s120-53.832 120-120c0-63.134-48.708-115.539-111.394-120-1.19 0-2.354 0-3.606 0h-150c-5.827 0-11.126 3.374-13.591 8.654-2.465 5.279-1.65 11.509 2.091 15.976zm72.167-2.575h80c8.284 0 15 6.716 15 15s-6.716 15-15 15h-80c-8.284 0-15-6.716-15-15s6.716-15 15-15zm0 60h80c8.284 0 15 6.716 15 15s-6.716 15-15 15h-80c-8.284 0-15-6.716-15-15s6.716-15 15-15z"/><path d="m276.5 296.63c3.741-4.467 4.556-10.697 2.091-15.976-2.465-5.28-7.764-8.654-13.591-8.654h-150c-1.251 0-1.001-.036-2 0-62.805 2.232-113 56.866-113 120 0 66.168 53.832 120 120 120s120-53.832 120-120c0-14.576-2.631-28.805-7.832-42.425zm-116.5 140.37h-80c-8.284 0-15-6.716-15-15s6.716-15 15-15h80c8.284 0 15 6.716 15 15s-6.716 15-15 15zm0-60h-80c-8.284 0-15-6.716-15-15s6.716-15 15-15h80c8.284 0 15 6.716 15 15s-6.716 15-15 15z"/></g></svg>